<mxfile host="app.diagrams.net" modified="2022-07-01T10:24:36.090Z" agent="5.0 (Macintosh; Intel Mac OS X 10_15_7) AppleWebKit/537.36 (KHTML, like Gecko) Chrome/103.0.0.0 Safari/537.36" etag="UJPkkEi6jN3ioDxFXe_L" version="20.0.4" type="github">
  <diagram id="C5RBs43oDa-KdzZeNtuy" name="Page-1">
    <mxGraphModel dx="946" dy="614" grid="1" gridSize="10" guides="1" tooltips="1" connect="1" arrows="1" fold="1" page="1" pageScale="1" pageWidth="1169" pageHeight="1654" math="0" shadow="0">
      <root>
        <mxCell id="WIyWlLk6GJQsqaUBKTNV-0" />
        <mxCell id="WIyWlLk6GJQsqaUBKTNV-1" parent="WIyWlLk6GJQsqaUBKTNV-0" />
        <mxCell id="sY8Rb-gbaNKT9xPLSY3D-8" style="edgeStyle=orthogonalEdgeStyle;rounded=0;orthogonalLoop=1;jettySize=auto;html=1;entryX=0.5;entryY=0;entryDx=0;entryDy=0;shadow=0;sketch=1;fontFamily=Comic Sans MS;" edge="1" parent="WIyWlLk6GJQsqaUBKTNV-1" source="sY8Rb-gbaNKT9xPLSY3D-0" target="sY8Rb-gbaNKT9xPLSY3D-7">
          <mxGeometry relative="1" as="geometry" />
        </mxCell>
        <mxCell id="sY8Rb-gbaNKT9xPLSY3D-0" value="Generate a word randomly and display the list of letters" style="rounded=1;whiteSpace=wrap;html=1;fontSize=12;glass=0;strokeWidth=1;shadow=0;sketch=1;fontFamily=Comic Sans MS;" vertex="1" parent="WIyWlLk6GJQsqaUBKTNV-1">
          <mxGeometry x="160" y="170" width="120" height="60" as="geometry" />
        </mxCell>
        <mxCell id="sY8Rb-gbaNKT9xPLSY3D-21" style="edgeStyle=orthogonalEdgeStyle;rounded=0;orthogonalLoop=1;jettySize=auto;html=1;entryX=0.5;entryY=0;entryDx=0;entryDy=0;shadow=0;sketch=1;fontFamily=Comic Sans MS;" edge="1" parent="WIyWlLk6GJQsqaUBKTNV-1" source="sY8Rb-gbaNKT9xPLSY3D-7" target="sY8Rb-gbaNKT9xPLSY3D-19">
          <mxGeometry relative="1" as="geometry" />
        </mxCell>
        <mxCell id="sY8Rb-gbaNKT9xPLSY3D-7" value="Input letter as guessing a word" style="shape=parallelogram;perimeter=parallelogramPerimeter;whiteSpace=wrap;html=1;fixedSize=1;shadow=0;sketch=1;fontFamily=Comic Sans MS;" vertex="1" parent="WIyWlLk6GJQsqaUBKTNV-1">
          <mxGeometry x="160" y="290" width="120" height="60" as="geometry" />
        </mxCell>
        <mxCell id="sY8Rb-gbaNKT9xPLSY3D-16" style="edgeStyle=orthogonalEdgeStyle;rounded=0;orthogonalLoop=1;jettySize=auto;html=1;entryX=0.5;entryY=0;entryDx=0;entryDy=0;shadow=0;sketch=1;fontFamily=Comic Sans MS;" edge="1" parent="WIyWlLk6GJQsqaUBKTNV-1" source="sY8Rb-gbaNKT9xPLSY3D-14" target="sY8Rb-gbaNKT9xPLSY3D-0">
          <mxGeometry relative="1" as="geometry" />
        </mxCell>
        <mxCell id="sY8Rb-gbaNKT9xPLSY3D-14" value="Start" style="ellipse;whiteSpace=wrap;html=1;shadow=0;sketch=1;fontFamily=Comic Sans MS;" vertex="1" parent="WIyWlLk6GJQsqaUBKTNV-1">
          <mxGeometry x="160" y="80" width="120" height="40" as="geometry" />
        </mxCell>
        <mxCell id="sY8Rb-gbaNKT9xPLSY3D-27" style="edgeStyle=orthogonalEdgeStyle;rounded=0;orthogonalLoop=1;jettySize=auto;html=1;entryX=0.5;entryY=0;entryDx=0;entryDy=0;shadow=0;sketch=1;fontFamily=Comic Sans MS;" edge="1" parent="WIyWlLk6GJQsqaUBKTNV-1" source="sY8Rb-gbaNKT9xPLSY3D-19" target="sY8Rb-gbaNKT9xPLSY3D-22">
          <mxGeometry relative="1" as="geometry" />
        </mxCell>
        <mxCell id="sY8Rb-gbaNKT9xPLSY3D-19" value="Each letter stores in list of letters or could be deleted" style="rounded=1;whiteSpace=wrap;html=1;shadow=0;sketch=1;fontFamily=Comic Sans MS;" vertex="1" parent="WIyWlLk6GJQsqaUBKTNV-1">
          <mxGeometry x="160" y="410" width="120" height="60" as="geometry" />
        </mxCell>
        <mxCell id="sY8Rb-gbaNKT9xPLSY3D-28" style="edgeStyle=orthogonalEdgeStyle;rounded=0;orthogonalLoop=1;jettySize=auto;html=1;entryX=0.5;entryY=0;entryDx=0;entryDy=0;shadow=0;sketch=1;fontFamily=Comic Sans MS;" edge="1" parent="WIyWlLk6GJQsqaUBKTNV-1" source="sY8Rb-gbaNKT9xPLSY3D-22" target="sY8Rb-gbaNKT9xPLSY3D-23">
          <mxGeometry relative="1" as="geometry" />
        </mxCell>
        <mxCell id="sY8Rb-gbaNKT9xPLSY3D-22" value="Click guess button" style="shape=parallelogram;perimeter=parallelogramPerimeter;whiteSpace=wrap;html=1;fixedSize=1;shadow=0;sketch=1;fontFamily=Comic Sans MS;" vertex="1" parent="WIyWlLk6GJQsqaUBKTNV-1">
          <mxGeometry x="160" y="540" width="120" height="60" as="geometry" />
        </mxCell>
        <mxCell id="sY8Rb-gbaNKT9xPLSY3D-25" style="edgeStyle=orthogonalEdgeStyle;rounded=0;orthogonalLoop=1;jettySize=auto;html=1;entryX=0;entryY=0.5;entryDx=0;entryDy=0;shadow=0;sketch=1;fontFamily=Comic Sans MS;" edge="1" parent="WIyWlLk6GJQsqaUBKTNV-1" source="sY8Rb-gbaNKT9xPLSY3D-23" target="sY8Rb-gbaNKT9xPLSY3D-24">
          <mxGeometry relative="1" as="geometry" />
        </mxCell>
        <mxCell id="sY8Rb-gbaNKT9xPLSY3D-31" style="edgeStyle=orthogonalEdgeStyle;rounded=0;orthogonalLoop=1;jettySize=auto;html=1;entryX=0.5;entryY=0;entryDx=0;entryDy=0;shadow=0;sketch=1;fontFamily=Comic Sans MS;" edge="1" parent="WIyWlLk6GJQsqaUBKTNV-1" source="sY8Rb-gbaNKT9xPLSY3D-23" target="sY8Rb-gbaNKT9xPLSY3D-29">
          <mxGeometry relative="1" as="geometry" />
        </mxCell>
        <mxCell id="sY8Rb-gbaNKT9xPLSY3D-23" value="input length ===&amp;nbsp;&lt;br&gt;&amp;nbsp;word length?" style="rhombus;whiteSpace=wrap;html=1;shadow=0;sketch=1;fontFamily=Comic Sans MS;" vertex="1" parent="WIyWlLk6GJQsqaUBKTNV-1">
          <mxGeometry x="120" y="680" width="200" height="120" as="geometry" />
        </mxCell>
        <mxCell id="sY8Rb-gbaNKT9xPLSY3D-26" style="edgeStyle=orthogonalEdgeStyle;rounded=0;orthogonalLoop=1;jettySize=auto;html=1;entryX=1;entryY=0.5;entryDx=0;entryDy=0;shadow=0;sketch=1;fontFamily=Comic Sans MS;" edge="1" parent="WIyWlLk6GJQsqaUBKTNV-1" source="sY8Rb-gbaNKT9xPLSY3D-24" target="sY8Rb-gbaNKT9xPLSY3D-7">
          <mxGeometry relative="1" as="geometry">
            <Array as="points">
              <mxPoint x="460" y="320" />
            </Array>
          </mxGeometry>
        </mxCell>
        <mxCell id="sY8Rb-gbaNKT9xPLSY3D-24" value="Warning: Fill all the list of letters" style="rounded=1;whiteSpace=wrap;html=1;shadow=0;sketch=1;fontFamily=Comic Sans MS;" vertex="1" parent="WIyWlLk6GJQsqaUBKTNV-1">
          <mxGeometry x="401" y="710" width="120" height="60" as="geometry" />
        </mxCell>
        <mxCell id="sY8Rb-gbaNKT9xPLSY3D-35" style="edgeStyle=orthogonalEdgeStyle;rounded=0;orthogonalLoop=1;jettySize=auto;html=1;entryX=0;entryY=0.5;entryDx=0;entryDy=0;shadow=0;sketch=1;fontFamily=Comic Sans MS;" edge="1" parent="WIyWlLk6GJQsqaUBKTNV-1" source="sY8Rb-gbaNKT9xPLSY3D-29" target="sY8Rb-gbaNKT9xPLSY3D-34">
          <mxGeometry relative="1" as="geometry" />
        </mxCell>
        <mxCell id="sY8Rb-gbaNKT9xPLSY3D-37" style="edgeStyle=orthogonalEdgeStyle;rounded=0;orthogonalLoop=1;jettySize=auto;html=1;entryX=0.5;entryY=0;entryDx=0;entryDy=0;shadow=0;sketch=1;fontFamily=Comic Sans MS;" edge="1" parent="WIyWlLk6GJQsqaUBKTNV-1" source="sY8Rb-gbaNKT9xPLSY3D-29" target="sY8Rb-gbaNKT9xPLSY3D-33">
          <mxGeometry relative="1" as="geometry" />
        </mxCell>
        <mxCell id="sY8Rb-gbaNKT9xPLSY3D-29" value="same array index of&lt;br&gt;&amp;nbsp;the both list of letter: &lt;br&gt;player input === &lt;br&gt;letter of word?" style="rhombus;whiteSpace=wrap;html=1;shadow=0;sketch=1;fontFamily=Comic Sans MS;" vertex="1" parent="WIyWlLk6GJQsqaUBKTNV-1">
          <mxGeometry x="120" y="880" width="200" height="120" as="geometry" />
        </mxCell>
        <mxCell id="sY8Rb-gbaNKT9xPLSY3D-30" value="Yes" style="text;html=1;align=center;verticalAlign=middle;resizable=0;points=[];autosize=1;strokeColor=none;fillColor=none;shadow=0;sketch=1;fontFamily=Comic Sans MS;" vertex="1" parent="WIyWlLk6GJQsqaUBKTNV-1">
          <mxGeometry x="220" y="800" width="40" height="30" as="geometry" />
        </mxCell>
        <mxCell id="sY8Rb-gbaNKT9xPLSY3D-32" value="No" style="text;html=1;align=center;verticalAlign=middle;resizable=0;points=[];autosize=1;strokeColor=none;fillColor=none;shadow=0;sketch=1;fontFamily=Comic Sans MS;" vertex="1" parent="WIyWlLk6GJQsqaUBKTNV-1">
          <mxGeometry x="320" y="740" width="40" height="30" as="geometry" />
        </mxCell>
        <mxCell id="sY8Rb-gbaNKT9xPLSY3D-53" style="edgeStyle=orthogonalEdgeStyle;rounded=0;orthogonalLoop=1;jettySize=auto;html=1;entryX=0;entryY=0.5;entryDx=0;entryDy=0;shadow=0;sketch=1;fontFamily=Comic Sans MS;" edge="1" parent="WIyWlLk6GJQsqaUBKTNV-1" source="sY8Rb-gbaNKT9xPLSY3D-33" target="sY8Rb-gbaNKT9xPLSY3D-49">
          <mxGeometry relative="1" as="geometry" />
        </mxCell>
        <mxCell id="sY8Rb-gbaNKT9xPLSY3D-33" value="Remain the letter&lt;br&gt;on the match list" style="rounded=1;whiteSpace=wrap;html=1;shadow=0;sketch=1;fontFamily=Comic Sans MS;" vertex="1" parent="WIyWlLk6GJQsqaUBKTNV-1">
          <mxGeometry x="160" y="1090" width="120" height="60" as="geometry" />
        </mxCell>
        <mxCell id="sY8Rb-gbaNKT9xPLSY3D-52" style="edgeStyle=orthogonalEdgeStyle;rounded=0;orthogonalLoop=1;jettySize=auto;html=1;entryX=0.5;entryY=0;entryDx=0;entryDy=0;shadow=0;sketch=1;fontFamily=Comic Sans MS;" edge="1" parent="WIyWlLk6GJQsqaUBKTNV-1" source="sY8Rb-gbaNKT9xPLSY3D-34" target="sY8Rb-gbaNKT9xPLSY3D-49">
          <mxGeometry relative="1" as="geometry" />
        </mxCell>
        <mxCell id="sY8Rb-gbaNKT9xPLSY3D-34" value="Empty the non-match list of letter" style="rounded=1;whiteSpace=wrap;html=1;shadow=0;sketch=1;fontFamily=Comic Sans MS;" vertex="1" parent="WIyWlLk6GJQsqaUBKTNV-1">
          <mxGeometry x="401" y="910" width="120" height="60" as="geometry" />
        </mxCell>
        <mxCell id="sY8Rb-gbaNKT9xPLSY3D-58" style="edgeStyle=orthogonalEdgeStyle;rounded=0;orthogonalLoop=1;jettySize=auto;html=1;entryX=0.5;entryY=1;entryDx=0;entryDy=0;shadow=0;sketch=1;fontFamily=Comic Sans MS;" edge="1" parent="WIyWlLk6GJQsqaUBKTNV-1" source="sY8Rb-gbaNKT9xPLSY3D-38" target="sY8Rb-gbaNKT9xPLSY3D-39">
          <mxGeometry relative="1" as="geometry" />
        </mxCell>
        <mxCell id="sY8Rb-gbaNKT9xPLSY3D-38" value="Life -= 1" style="rounded=1;whiteSpace=wrap;html=1;shadow=0;sketch=1;fontFamily=Comic Sans MS;" vertex="1" parent="WIyWlLk6GJQsqaUBKTNV-1">
          <mxGeometry x="640" y="1090" width="120" height="60" as="geometry" />
        </mxCell>
        <mxCell id="sY8Rb-gbaNKT9xPLSY3D-59" style="edgeStyle=orthogonalEdgeStyle;rounded=0;orthogonalLoop=1;jettySize=auto;html=1;entryX=0;entryY=0.5;entryDx=0;entryDy=0;shadow=0;sketch=1;fontFamily=Comic Sans MS;" edge="1" parent="WIyWlLk6GJQsqaUBKTNV-1" source="sY8Rb-gbaNKT9xPLSY3D-39" target="sY8Rb-gbaNKT9xPLSY3D-40">
          <mxGeometry relative="1" as="geometry" />
        </mxCell>
        <mxCell id="sY8Rb-gbaNKT9xPLSY3D-63" style="edgeStyle=orthogonalEdgeStyle;rounded=0;orthogonalLoop=1;jettySize=auto;html=1;entryX=1;entryY=0.5;entryDx=0;entryDy=0;shadow=0;sketch=1;fontFamily=Comic Sans MS;" edge="1" parent="WIyWlLk6GJQsqaUBKTNV-1" source="sY8Rb-gbaNKT9xPLSY3D-39" target="sY8Rb-gbaNKT9xPLSY3D-7">
          <mxGeometry relative="1" as="geometry" />
        </mxCell>
        <mxCell id="sY8Rb-gbaNKT9xPLSY3D-39" value="Life == 0?" style="rhombus;whiteSpace=wrap;html=1;shadow=0;sketch=1;fontFamily=Comic Sans MS;" vertex="1" parent="WIyWlLk6GJQsqaUBKTNV-1">
          <mxGeometry x="640" y="280" width="120" height="80" as="geometry" />
        </mxCell>
        <mxCell id="sY8Rb-gbaNKT9xPLSY3D-67" style="edgeStyle=orthogonalEdgeStyle;rounded=0;orthogonalLoop=1;jettySize=auto;html=1;entryX=0.5;entryY=0;entryDx=0;entryDy=0;shadow=0;sketch=1;fontFamily=Comic Sans MS;" edge="1" parent="WIyWlLk6GJQsqaUBKTNV-1" source="sY8Rb-gbaNKT9xPLSY3D-40" target="sY8Rb-gbaNKT9xPLSY3D-64">
          <mxGeometry relative="1" as="geometry">
            <mxPoint x="910" y="710" as="targetPoint" />
          </mxGeometry>
        </mxCell>
        <mxCell id="sY8Rb-gbaNKT9xPLSY3D-40" value="Game Loss" style="rounded=1;whiteSpace=wrap;html=1;shadow=0;sketch=1;fontFamily=Comic Sans MS;" vertex="1" parent="WIyWlLk6GJQsqaUBKTNV-1">
          <mxGeometry x="840" y="290" width="120" height="60" as="geometry" />
        </mxCell>
        <mxCell id="sY8Rb-gbaNKT9xPLSY3D-43" value="Yes" style="text;html=1;align=center;verticalAlign=middle;resizable=0;points=[];autosize=1;strokeColor=none;fillColor=none;shadow=0;sketch=1;fontFamily=Comic Sans MS;" vertex="1" parent="WIyWlLk6GJQsqaUBKTNV-1">
          <mxGeometry x="220" y="1000" width="40" height="30" as="geometry" />
        </mxCell>
        <mxCell id="sY8Rb-gbaNKT9xPLSY3D-44" value="No" style="text;html=1;align=center;verticalAlign=middle;resizable=0;points=[];autosize=1;strokeColor=none;fillColor=none;shadow=0;sketch=1;fontFamily=Comic Sans MS;" vertex="1" parent="WIyWlLk6GJQsqaUBKTNV-1">
          <mxGeometry x="320" y="940" width="40" height="30" as="geometry" />
        </mxCell>
        <mxCell id="sY8Rb-gbaNKT9xPLSY3D-56" style="edgeStyle=orthogonalEdgeStyle;rounded=0;orthogonalLoop=1;jettySize=auto;html=1;entryX=0;entryY=0.5;entryDx=0;entryDy=0;shadow=0;sketch=1;fontFamily=Comic Sans MS;" edge="1" parent="WIyWlLk6GJQsqaUBKTNV-1" source="sY8Rb-gbaNKT9xPLSY3D-49" target="sY8Rb-gbaNKT9xPLSY3D-38">
          <mxGeometry relative="1" as="geometry" />
        </mxCell>
        <mxCell id="sY8Rb-gbaNKT9xPLSY3D-57" style="edgeStyle=orthogonalEdgeStyle;rounded=0;orthogonalLoop=1;jettySize=auto;html=1;entryX=0.5;entryY=0;entryDx=0;entryDy=0;shadow=0;sketch=1;fontFamily=Comic Sans MS;" edge="1" parent="WIyWlLk6GJQsqaUBKTNV-1" source="sY8Rb-gbaNKT9xPLSY3D-49" target="sY8Rb-gbaNKT9xPLSY3D-54">
          <mxGeometry relative="1" as="geometry" />
        </mxCell>
        <mxCell id="sY8Rb-gbaNKT9xPLSY3D-49" value="Match the word with &lt;br&gt;the list of letters?" style="rhombus;whiteSpace=wrap;html=1;shadow=0;sketch=1;fontFamily=Comic Sans MS;" vertex="1" parent="WIyWlLk6GJQsqaUBKTNV-1">
          <mxGeometry x="361" y="1080" width="200" height="80" as="geometry" />
        </mxCell>
        <mxCell id="sY8Rb-gbaNKT9xPLSY3D-66" style="edgeStyle=orthogonalEdgeStyle;rounded=0;orthogonalLoop=1;jettySize=auto;html=1;entryX=0.5;entryY=1;entryDx=0;entryDy=0;shadow=0;sketch=1;fontFamily=Comic Sans MS;" edge="1" parent="WIyWlLk6GJQsqaUBKTNV-1" source="sY8Rb-gbaNKT9xPLSY3D-54" target="sY8Rb-gbaNKT9xPLSY3D-64">
          <mxGeometry relative="1" as="geometry">
            <mxPoint x="880" y="820" as="targetPoint" />
          </mxGeometry>
        </mxCell>
        <mxCell id="sY8Rb-gbaNKT9xPLSY3D-54" value="Game Win" style="rounded=1;whiteSpace=wrap;html=1;shadow=0;sketch=1;fontFamily=Comic Sans MS;" vertex="1" parent="WIyWlLk6GJQsqaUBKTNV-1">
          <mxGeometry x="401" y="1250" width="120" height="60" as="geometry" />
        </mxCell>
        <mxCell id="sY8Rb-gbaNKT9xPLSY3D-60" value="Yes" style="text;html=1;align=center;verticalAlign=middle;resizable=0;points=[];autosize=1;strokeColor=none;fillColor=none;shadow=0;sketch=1;fontFamily=Comic Sans MS;" vertex="1" parent="WIyWlLk6GJQsqaUBKTNV-1">
          <mxGeometry x="760" y="320" width="40" height="30" as="geometry" />
        </mxCell>
        <mxCell id="sY8Rb-gbaNKT9xPLSY3D-61" value="No" style="text;html=1;align=center;verticalAlign=middle;resizable=0;points=[];autosize=1;strokeColor=none;fillColor=none;shadow=0;sketch=1;fontFamily=Comic Sans MS;" vertex="1" parent="WIyWlLk6GJQsqaUBKTNV-1">
          <mxGeometry x="600" y="320" width="40" height="30" as="geometry" />
        </mxCell>
        <mxCell id="sY8Rb-gbaNKT9xPLSY3D-69" style="edgeStyle=orthogonalEdgeStyle;rounded=0;orthogonalLoop=1;jettySize=auto;html=1;entryX=0;entryY=0.5;entryDx=0;entryDy=0;shadow=0;sketch=1;fontFamily=Comic Sans MS;" edge="1" parent="WIyWlLk6GJQsqaUBKTNV-1" source="sY8Rb-gbaNKT9xPLSY3D-64" target="sY8Rb-gbaNKT9xPLSY3D-68">
          <mxGeometry relative="1" as="geometry" />
        </mxCell>
        <mxCell id="sY8Rb-gbaNKT9xPLSY3D-64" value="Play Again" style="shape=parallelogram;perimeter=parallelogramPerimeter;whiteSpace=wrap;html=1;fixedSize=1;shadow=0;sketch=1;fontFamily=Comic Sans MS;" vertex="1" parent="WIyWlLk6GJQsqaUBKTNV-1">
          <mxGeometry x="840" y="740" width="120" height="60" as="geometry" />
        </mxCell>
        <mxCell id="sY8Rb-gbaNKT9xPLSY3D-68" value="End" style="ellipse;whiteSpace=wrap;html=1;shadow=0;sketch=1;fontFamily=Comic Sans MS;" vertex="1" parent="WIyWlLk6GJQsqaUBKTNV-1">
          <mxGeometry x="1040" y="750" width="120" height="40" as="geometry" />
        </mxCell>
      </root>
    </mxGraphModel>
  </diagram>
</mxfile>
